<svg width="512" height="512" viewBox="0 0 512 512" fill="none" xmlns="http://www.w3.org/2000/svg">
  <circle cx="256" cy="256" r="250" stroke="#00eaff" stroke-width="4" fill="none"/>
  <path d="M80 256c0-97 79-176 176-176s176 79 176 176-79 176-176 176S80 353 80 256z" stroke="#00eaff" stroke-width="2" fill="none"/>
  <path d="M256 80c97 0 176 79 176 176" stroke="#00eaff" stroke-width="2" fill="none"/>
  <path d="M256 432c-97 0-176-79-176-176" stroke="#00eaff" stroke-width="2" fill="none"/>
  <path d="M120 150c40 30 100 50 136 50s96-20 136-50" stroke="#00eaff" stroke-width="2" fill="none"/>
  <path d="M120 362c40-30 100-50 136-50s96 20 136 50" stroke="#00eaff" stroke-width="2" fill="none"/>
</svg>
